<svg width="23" height="17" viewBox="0 0 23 17" fill="none" xmlns="http://www.w3.org/2000/svg">
<path d="M18.6667 4.375V6.99125C18.6667 6.99125 16.345 7 16.3333 6.99125V4.375H12.8333C12.8333 4.375 12.845 2.63375 12.8333 2.625H16.3333V0H18.6667V2.625H22.1667V4.375H18.6667ZM15.1667 7.875V5.25H11.6667V2.625H2.33333C1.05 2.625 0 3.4125 0 4.375V14.875C0 15.8375 1.05 16.625 2.33333 16.625H16.3333C17.6167 16.625 18.6667 15.8375 18.6667 14.875V7.875H15.1667ZM2.33333 14.875L5.83333 11.375L8.16667 14L11.6667 10.5L16.3333 14.875H2.33333Z" fill="white"/>
</svg>
